<svg xmlns="http://www.w3.org/2000/svg" xmlns:xlink="http://www.w3.org/1999/xlink" width="1920" zoomAndPan="magnify" viewBox="0 0 1440 809.999993" height="1080" preserveAspectRatio="xMidYMid meet" version="1.0"><defs><g/><clipPath id="id1"><path d="M 315 0 L 1125 0 L 1125 810 L 315 810 Z M 315 0 " clip-rule="nonzero"/></clipPath><clipPath id="id2"><path d="M 405.019531 232.523438 C 420.203125 232.523438 434.265625 227.726562 445.855469 219.613281 C 459.539062 228.039062 475.707031 232.523438 492.976562 232.523438 C 532.363281 232.523438 564.398438 200.484375 564.398438 161.105469 C 564.398438 121.730469 532.363281 89.691406 492.976562 89.691406 C 486.128906 89.691406 479.402344 90.648438 472.917969 92.542969 C 471.011719 86.851562 469.046875 77 473.371094 67.082031 C 480.480469 50.75 504.121094 34.386719 504.359375 34.21875 C 505.824219 33.214844 506.804688 31.648438 507.078125 29.902344 C 507.347656 28.148438 506.882812 26.363281 505.792969 24.96875 L 488.703125 3.109375 C 486.847656 0.738281 483.597656 -0.0195312 480.898438 1.253906 C 478.558594 2.359375 424.972656 28.429688 408.292969 89.851562 C 407.203125 89.800781 406.128906 89.683594 405.023438 89.683594 C 398.183594 89.683594 391.457031 90.640625 384.976562 92.535156 C 383.0625 86.84375 381.09375 76.992188 385.417969 67.074219 C 392.53125 50.746094 416.175781 34.378906 416.414062 34.210938 C 417.878906 33.210938 418.863281 31.640625 419.132812 29.894531 C 419.402344 28.140625 418.9375 26.355469 417.847656 24.957031 L 400.753906 3.097656 C 398.890625 0.726562 395.644531 -0.03125 392.945312 1.246094 C 389.984375 2.648438 320.523438 36.335938 315.660156 117.832031 C 313.410156 155.421875 322.316406 186 341.40625 206.265625 C 357.363281 223.195312 379.957031 232.523438 405.019531 232.523438 Z M 481.925781 15.308594 L 491.605469 27.691406 C 483.289062 34.179688 467.859375 47.566406 461.589844 61.953125 C 452.480469 82.875 463.238281 102.832031 463.703125 103.675781 C 465.308594 106.585938 468.886719 107.78125 471.898438 106.449219 C 471.925781 106.445312 471.949219 106.429688 471.976562 106.417969 C 478.664062 103.847656 485.730469 102.542969 492.976562 102.542969 C 525.269531 102.542969 551.550781 128.816406 551.550781 161.113281 C 551.550781 193.410156 525.269531 219.683594 492.976562 219.683594 C 479.625 219.683594 467.101562 216.59375 456.238281 210.78125 C 468.71875 197.914062 476.445312 180.410156 476.445312 161.113281 C 476.445312 127.261719 452.75 98.902344 421.085938 91.585938 C 433.972656 46.828125 469.386719 22.636719 481.925781 15.308594 Z M 328.480469 118.597656 C 332.203125 56.277344 379.140625 24 393.976562 15.308594 L 403.65625 27.683594 C 395.335938 34.171875 379.898438 47.558594 373.628906 61.949219 C 364.96875 81.828125 374.273438 100.84375 375.613281 103.40625 C 375.777344 103.738281 375.96875 104.046875 376.179688 104.34375 C 377.992188 106.835938 381.339844 107.714844 384.183594 106.351562 C 390.828125 103.824219 397.835938 102.542969 405.019531 102.542969 C 437.3125 102.542969 463.59375 128.816406 463.59375 161.113281 C 463.59375 193.410156 437.3125 219.683594 405.019531 219.683594 C 383.53125 219.683594 364.257812 211.789062 350.761719 197.457031 C 334.160156 179.832031 326.457031 152.5625 328.480469 118.597656 Z M 994.191406 591.023438 C 980.507812 582.597656 964.339844 578.113281 947.070312 578.113281 C 907.683594 578.113281 875.648438 610.152344 875.648438 649.527344 C 875.648438 688.90625 907.683594 720.945312 947.070312 720.945312 C 953.917969 720.945312 960.644531 719.988281 967.125 718.09375 C 969.035156 723.785156 971 733.636719 966.675781 743.554688 C 959.566406 759.882812 935.925781 776.25 935.6875 776.417969 C 934.222656 777.421875 933.238281 778.988281 932.96875 780.734375 C 932.699219 782.488281 933.164062 784.273438 934.253906 785.667969 L 951.34375 807.527344 C 952.589844 809.125 954.476562 809.992188 956.40625 809.992188 C 957.335938 809.992188 958.269531 809.792969 959.148438 809.375 C 961.488281 808.273438 1015.074219 782.199219 1031.753906 720.777344 C 1032.84375 720.828125 1033.917969 720.945312 1035.023438 720.945312 C 1041.863281 720.945312 1048.589844 719.988281 1055.070312 718.09375 C 1056.984375 723.785156 1058.953125 733.636719 1054.628906 743.554688 C 1047.515625 759.882812 1023.871094 776.25 1023.632812 776.417969 C 1022.167969 777.421875 1021.183594 778.988281 1020.914062 780.734375 C 1020.644531 782.488281 1021.109375 784.273438 1022.199219 785.675781 L 1039.292969 807.535156 C 1040.546875 809.132812 1042.429688 810 1044.355469 810 C 1045.289062 810 1046.21875 809.800781 1047.097656 809.382812 C 1050.054688 807.988281 1119.519531 774.304688 1124.378906 692.808594 C 1126.628906 655.21875 1117.726562 624.644531 1098.632812 604.378906 C 1082.675781 587.445312 1060.082031 578.117188 1035.023438 578.117188 C 1019.84375 578.117188 1005.773438 582.917969 994.191406 591.023438 Z M 958.121094 795.335938 L 948.4375 782.949219 C 956.757812 776.464844 972.1875 763.078125 978.457031 748.6875 C 987.566406 727.765625 976.808594 707.808594 976.34375 706.96875 C 974.738281 704.058594 971.167969 702.871094 968.148438 704.191406 C 968.121094 704.199219 968.097656 704.210938 968.070312 704.226562 C 961.382812 706.792969 954.316406 708.097656 947.070312 708.097656 C 914.777344 708.097656 888.496094 681.824219 888.496094 649.527344 C 888.496094 617.230469 914.777344 590.960938 947.070312 590.960938 C 960.421875 590.960938 972.945312 594.050781 983.808594 599.863281 C 971.328125 612.730469 963.601562 630.234375 963.601562 649.527344 C 963.601562 683.378906 987.296875 711.738281 1018.960938 719.054688 C 1006.074219 763.808594 970.660156 788.007812 958.121094 795.335938 Z M 1111.566406 692.046875 C 1107.84375 754.371094 1060.90625 786.652344 1046.070312 795.335938 L 1036.390625 782.957031 C 1044.710938 776.46875 1060.148438 763.082031 1066.417969 748.695312 C 1075.074219 728.8125 1065.773438 709.800781 1064.429688 707.238281 C 1064.269531 706.902344 1064.078125 706.59375 1063.867188 706.300781 C 1062.054688 703.800781 1058.6875 702.921875 1055.863281 704.289062 C 1049.21875 706.820312 1042.210938 708.097656 1035.027344 708.097656 C 1002.734375 708.097656 976.453125 681.824219 976.453125 649.527344 C 976.453125 617.230469 1002.734375 590.960938 1035.027344 590.960938 C 1056.515625 590.960938 1075.789062 598.855469 1089.285156 613.183594 C 1105.886719 630.8125 1113.589844 658.078125 1111.566406 692.046875 Z M 378.5625 251.15625 L 378.5625 647.539062 C 378.5625 699.625 420.941406 742.007812 473.035156 742.007812 L 931.503906 742.007812 C 935.058594 742.007812 937.929688 744.886719 937.929688 748.429688 C 937.929688 751.976562 935.058594 754.855469 931.503906 754.855469 L 473.035156 754.855469 C 413.855469 754.855469 365.714844 706.710938 365.714844 647.539062 L 365.714844 251.15625 C 365.714844 247.613281 368.585938 244.734375 372.140625 244.734375 C 375.691406 244.734375 378.5625 247.613281 378.5625 251.15625 Z M 508.535156 55.773438 L 967.003906 55.773438 C 1026.183594 55.773438 1074.324219 103.917969 1074.324219 163.09375 L 1074.324219 559.472656 C 1074.324219 563.015625 1071.453125 565.894531 1067.902344 565.894531 C 1064.347656 565.894531 1061.476562 563.015625 1061.476562 559.472656 L 1061.476562 163.09375 C 1061.476562 111.003906 1019.097656 68.621094 967.003906 68.621094 L 508.535156 68.621094 C 504.980469 68.621094 502.109375 65.746094 502.109375 62.199219 C 502.109375 58.652344 504.988281 55.773438 508.535156 55.773438 Z M 508.535156 55.773438 " clip-rule="nonzero"/></clipPath><linearGradient x1="62.998001" gradientTransform="matrix(6.424027, 0, 0, 6.423473, 315.319243, 0.64235)" y1="-0.0999973" x2="62.998001" gradientUnits="userSpaceOnUse" y2="125.999985" id="id3"><stop stop-opacity="1" stop-color="rgb(93.699646%, 79.598999%, 34.498596%)" offset="0"/><stop stop-opacity="1" stop-color="rgb(93.650818%, 79.438782%, 34.651184%)" offset="0.0078125"/><stop stop-opacity="1" stop-color="rgb(93.548584%, 79.101562%, 34.97467%)" offset="0.015625"/><stop stop-opacity="1" stop-color="rgb(93.441772%, 78.746033%, 35.314941%)" offset="0.0234375"/><stop stop-opacity="1" stop-color="rgb(93.334961%, 78.388977%, 35.653687%)" offset="0.03125"/><stop stop-opacity="1" stop-color="rgb(93.228149%, 78.033447%, 35.993958%)" offset="0.0390625"/><stop stop-opacity="1" stop-color="rgb(93.121338%, 77.677917%, 36.334229%)" offset="0.046875"/><stop stop-opacity="1" stop-color="rgb(93.013%, 77.322388%, 36.6745%)" offset="0.0546875"/><stop stop-opacity="1" stop-color="rgb(92.906189%, 76.966858%, 37.014771%)" offset="0.0625"/><stop stop-opacity="1" stop-color="rgb(92.799377%, 76.611328%, 37.355042%)" offset="0.0703125"/><stop stop-opacity="1" stop-color="rgb(92.692566%, 76.255798%, 37.695312%)" offset="0.078125"/><stop stop-opacity="1" stop-color="rgb(92.585754%, 75.898743%, 38.035583%)" offset="0.0859375"/><stop stop-opacity="1" stop-color="rgb(92.477417%, 75.543213%, 38.375854%)" offset="0.09375"/><stop stop-opacity="1" stop-color="rgb(92.370605%, 75.187683%, 38.716125%)" offset="0.101563"/><stop stop-opacity="1" stop-color="rgb(92.263794%, 74.832153%, 39.054871%)" offset="0.109375"/><stop stop-opacity="1" stop-color="rgb(92.156982%, 74.476624%, 39.395142%)" offset="0.117188"/><stop stop-opacity="1" stop-color="rgb(92.050171%, 74.121094%, 39.735413%)" offset="0.125"/><stop stop-opacity="1" stop-color="rgb(91.941833%, 73.765564%, 40.075684%)" offset="0.132812"/><stop stop-opacity="1" stop-color="rgb(91.835022%, 73.408508%, 40.415955%)" offset="0.140625"/><stop stop-opacity="1" stop-color="rgb(91.72821%, 73.052979%, 40.756226%)" offset="0.148438"/><stop stop-opacity="1" stop-color="rgb(91.621399%, 72.697449%, 41.096497%)" offset="0.15625"/><stop stop-opacity="1" stop-color="rgb(91.514587%, 72.341919%, 41.436768%)" offset="0.164062"/><stop stop-opacity="1" stop-color="rgb(91.40625%, 71.986389%, 41.777039%)" offset="0.171875"/><stop stop-opacity="1" stop-color="rgb(91.299438%, 71.630859%, 42.11731%)" offset="0.179688"/><stop stop-opacity="1" stop-color="rgb(91.192627%, 71.273804%, 42.456055%)" offset="0.1875"/><stop stop-opacity="1" stop-color="rgb(91.085815%, 70.918274%, 42.796326%)" offset="0.195312"/><stop stop-opacity="1" stop-color="rgb(90.979004%, 70.562744%, 43.136597%)" offset="0.203125"/><stop stop-opacity="1" stop-color="rgb(90.870667%, 70.207214%, 43.476868%)" offset="0.210938"/><stop stop-opacity="1" stop-color="rgb(90.763855%, 69.851685%, 43.817139%)" offset="0.21875"/><stop stop-opacity="1" stop-color="rgb(90.657043%, 69.496155%, 44.15741%)" offset="0.226562"/><stop stop-opacity="1" stop-color="rgb(90.550232%, 69.140625%, 44.497681%)" offset="0.234375"/><stop stop-opacity="1" stop-color="rgb(90.44342%, 68.783569%, 44.837952%)" offset="0.242188"/><stop stop-opacity="1" stop-color="rgb(90.335083%, 68.42804%, 45.178223%)" offset="0.25"/><stop stop-opacity="1" stop-color="rgb(90.228271%, 68.07251%, 45.516968%)" offset="0.257812"/><stop stop-opacity="1" stop-color="rgb(90.12146%, 67.71698%, 45.857239%)" offset="0.265625"/><stop stop-opacity="1" stop-color="rgb(90.014648%, 67.36145%, 46.19751%)" offset="0.273438"/><stop stop-opacity="1" stop-color="rgb(89.907837%, 67.00592%, 46.537781%)" offset="0.28125"/><stop stop-opacity="1" stop-color="rgb(89.7995%, 66.650391%, 46.878052%)" offset="0.289063"/><stop stop-opacity="1" stop-color="rgb(89.692688%, 66.293335%, 47.218323%)" offset="0.296875"/><stop stop-opacity="1" stop-color="rgb(89.585876%, 65.937805%, 47.558594%)" offset="0.304688"/><stop stop-opacity="1" stop-color="rgb(89.479065%, 65.582275%, 47.898865%)" offset="0.3125"/><stop stop-opacity="1" stop-color="rgb(89.372253%, 65.226746%, 48.239136%)" offset="0.320312"/><stop stop-opacity="1" stop-color="rgb(89.263916%, 64.871216%, 48.579407%)" offset="0.328125"/><stop stop-opacity="1" stop-color="rgb(89.157104%, 64.515686%, 48.918152%)" offset="0.335938"/><stop stop-opacity="1" stop-color="rgb(89.050293%, 64.160156%, 49.258423%)" offset="0.34375"/><stop stop-opacity="1" stop-color="rgb(88.943481%, 63.803101%, 49.598694%)" offset="0.351563"/><stop stop-opacity="1" stop-color="rgb(88.83667%, 63.447571%, 49.938965%)" offset="0.359375"/><stop stop-opacity="1" stop-color="rgb(88.728333%, 63.092041%, 50.279236%)" offset="0.367188"/><stop stop-opacity="1" stop-color="rgb(88.621521%, 62.736511%, 50.619507%)" offset="0.375"/><stop stop-opacity="1" stop-color="rgb(88.514709%, 62.380981%, 50.959778%)" offset="0.382812"/><stop stop-opacity="1" stop-color="rgb(88.407898%, 62.025452%, 51.300049%)" offset="0.390625"/><stop stop-opacity="1" stop-color="rgb(88.301086%, 61.669922%, 51.64032%)" offset="0.398438"/><stop stop-opacity="1" stop-color="rgb(88.192749%, 61.312866%, 51.980591%)" offset="0.40625"/><stop stop-opacity="1" stop-color="rgb(88.085938%, 60.957336%, 52.319336%)" offset="0.414063"/><stop stop-opacity="1" stop-color="rgb(87.979126%, 60.601807%, 52.659607%)" offset="0.421875"/><stop stop-opacity="1" stop-color="rgb(87.872314%, 60.246277%, 52.999878%)" offset="0.429688"/><stop stop-opacity="1" stop-color="rgb(87.765503%, 59.890747%, 53.340149%)" offset="0.4375"/><stop stop-opacity="1" stop-color="rgb(87.657166%, 59.535217%, 53.68042%)" offset="0.445312"/><stop stop-opacity="1" stop-color="rgb(87.550354%, 59.179688%, 54.020691%)" offset="0.453125"/><stop stop-opacity="1" stop-color="rgb(87.443542%, 58.822632%, 54.360962%)" offset="0.460938"/><stop stop-opacity="1" stop-color="rgb(87.336731%, 58.467102%, 54.701233%)" offset="0.46875"/><stop stop-opacity="1" stop-color="rgb(87.229919%, 58.111572%, 55.041504%)" offset="0.476563"/><stop stop-opacity="1" stop-color="rgb(87.121582%, 57.756042%, 55.380249%)" offset="0.484375"/><stop stop-opacity="1" stop-color="rgb(87.014771%, 57.400513%, 55.72052%)" offset="0.492188"/><stop stop-opacity="1" stop-color="rgb(86.907959%, 57.044983%, 56.060791%)" offset="0.5"/><stop stop-opacity="1" stop-color="rgb(86.801147%, 56.689453%, 56.401062%)" offset="0.507812"/><stop stop-opacity="1" stop-color="rgb(86.694336%, 56.332397%, 56.741333%)" offset="0.515625"/><stop stop-opacity="1" stop-color="rgb(86.585999%, 55.976868%, 57.081604%)" offset="0.523438"/><stop stop-opacity="1" stop-color="rgb(86.479187%, 55.621338%, 57.421875%)" offset="0.53125"/><stop stop-opacity="1" stop-color="rgb(86.372375%, 55.265808%, 57.762146%)" offset="0.539063"/><stop stop-opacity="1" stop-color="rgb(86.265564%, 54.910278%, 58.102417%)" offset="0.546875"/><stop stop-opacity="1" stop-color="rgb(86.158752%, 54.554749%, 58.442688%)" offset="0.554688"/><stop stop-opacity="1" stop-color="rgb(86.050415%, 54.199219%, 58.781433%)" offset="0.5625"/><stop stop-opacity="1" stop-color="rgb(85.943604%, 53.842163%, 59.121704%)" offset="0.570312"/><stop stop-opacity="1" stop-color="rgb(85.836792%, 53.486633%, 59.461975%)" offset="0.578125"/><stop stop-opacity="1" stop-color="rgb(85.72998%, 53.131104%, 59.802246%)" offset="0.585938"/><stop stop-opacity="1" stop-color="rgb(85.623169%, 52.775574%, 60.142517%)" offset="0.59375"/><stop stop-opacity="1" stop-color="rgb(85.514832%, 52.420044%, 60.482788%)" offset="0.601563"/><stop stop-opacity="1" stop-color="rgb(85.40802%, 52.064514%, 60.823059%)" offset="0.609375"/><stop stop-opacity="1" stop-color="rgb(85.301208%, 51.708984%, 61.16333%)" offset="0.617188"/><stop stop-opacity="1" stop-color="rgb(85.194397%, 51.351929%, 61.503601%)" offset="0.625"/><stop stop-opacity="1" stop-color="rgb(85.087585%, 50.996399%, 61.843872%)" offset="0.632813"/><stop stop-opacity="1" stop-color="rgb(84.979248%, 50.640869%, 62.182617%)" offset="0.640625"/><stop stop-opacity="1" stop-color="rgb(84.872437%, 50.285339%, 62.522888%)" offset="0.648438"/><stop stop-opacity="1" stop-color="rgb(84.765625%, 49.92981%, 62.863159%)" offset="0.65625"/><stop stop-opacity="1" stop-color="rgb(84.658813%, 49.57428%, 63.20343%)" offset="0.664063"/><stop stop-opacity="1" stop-color="rgb(84.552002%, 49.21875%, 63.543701%)" offset="0.671875"/><stop stop-opacity="1" stop-color="rgb(84.443665%, 48.861694%, 63.883972%)" offset="0.679688"/><stop stop-opacity="1" stop-color="rgb(84.336853%, 48.506165%, 64.224243%)" offset="0.6875"/><stop stop-opacity="1" stop-color="rgb(84.230042%, 48.150635%, 64.564514%)" offset="0.695312"/><stop stop-opacity="1" stop-color="rgb(84.12323%, 47.795105%, 64.904785%)" offset="0.703125"/><stop stop-opacity="1" stop-color="rgb(84.016418%, 47.439575%, 65.245056%)" offset="0.710938"/><stop stop-opacity="1" stop-color="rgb(83.908081%, 47.084045%, 65.583801%)" offset="0.71875"/><stop stop-opacity="1" stop-color="rgb(83.80127%, 46.72699%, 65.924072%)" offset="0.726563"/><stop stop-opacity="1" stop-color="rgb(83.694458%, 46.37146%, 66.264343%)" offset="0.734375"/><stop stop-opacity="1" stop-color="rgb(83.587646%, 46.01593%, 66.604614%)" offset="0.742188"/><stop stop-opacity="1" stop-color="rgb(83.480835%, 45.6604%, 66.944885%)" offset="0.75"/><stop stop-opacity="1" stop-color="rgb(83.372498%, 45.304871%, 67.285156%)" offset="0.757813"/><stop stop-opacity="1" stop-color="rgb(83.265686%, 44.949341%, 67.625427%)" offset="0.765625"/><stop stop-opacity="1" stop-color="rgb(83.158875%, 44.593811%, 67.965698%)" offset="0.773438"/><stop stop-opacity="1" stop-color="rgb(83.052063%, 44.236755%, 68.305969%)" offset="0.78125"/><stop stop-opacity="1" stop-color="rgb(82.945251%, 43.881226%, 68.644714%)" offset="0.789063"/><stop stop-opacity="1" stop-color="rgb(82.836914%, 43.525696%, 68.984985%)" offset="0.796875"/><stop stop-opacity="1" stop-color="rgb(82.730103%, 43.170166%, 69.325256%)" offset="0.804688"/><stop stop-opacity="1" stop-color="rgb(82.623291%, 42.814636%, 69.665527%)" offset="0.8125"/><stop stop-opacity="1" stop-color="rgb(82.516479%, 42.459106%, 70.005798%)" offset="0.820312"/><stop stop-opacity="1" stop-color="rgb(82.409668%, 42.103577%, 70.346069%)" offset="0.828125"/><stop stop-opacity="1" stop-color="rgb(82.301331%, 41.746521%, 70.68634%)" offset="0.835938"/><stop stop-opacity="1" stop-color="rgb(82.194519%, 41.390991%, 71.026611%)" offset="0.84375"/><stop stop-opacity="1" stop-color="rgb(82.087708%, 41.035461%, 71.366882%)" offset="0.851563"/><stop stop-opacity="1" stop-color="rgb(81.980896%, 40.679932%, 71.707153%)" offset="0.859375"/><stop stop-opacity="1" stop-color="rgb(81.874084%, 40.324402%, 72.045898%)" offset="0.867188"/><stop stop-opacity="1" stop-color="rgb(81.765747%, 39.968872%, 72.386169%)" offset="0.875"/><stop stop-opacity="1" stop-color="rgb(81.658936%, 39.613342%, 72.72644%)" offset="0.882813"/><stop stop-opacity="1" stop-color="rgb(81.552124%, 39.256287%, 73.066711%)" offset="0.890625"/><stop stop-opacity="1" stop-color="rgb(81.445312%, 38.900757%, 73.406982%)" offset="0.898438"/><stop stop-opacity="1" stop-color="rgb(81.338501%, 38.545227%, 73.747253%)" offset="0.90625"/><stop stop-opacity="1" stop-color="rgb(81.230164%, 38.189697%, 74.087524%)" offset="0.914063"/><stop stop-opacity="1" stop-color="rgb(81.123352%, 37.834167%, 74.427795%)" offset="0.921875"/><stop stop-opacity="1" stop-color="rgb(81.016541%, 37.478638%, 74.768066%)" offset="0.929688"/><stop stop-opacity="1" stop-color="rgb(80.909729%, 37.123108%, 75.108337%)" offset="0.9375"/><stop stop-opacity="1" stop-color="rgb(80.802917%, 36.766052%, 75.447083%)" offset="0.945312"/><stop stop-opacity="1" stop-color="rgb(80.69458%, 36.410522%, 75.787354%)" offset="0.953125"/><stop stop-opacity="1" stop-color="rgb(80.587769%, 36.054993%, 76.127625%)" offset="0.960938"/><stop stop-opacity="1" stop-color="rgb(80.480957%, 35.699463%, 76.467896%)" offset="0.96875"/><stop stop-opacity="1" stop-color="rgb(80.374146%, 35.343933%, 76.808167%)" offset="0.976563"/><stop stop-opacity="1" stop-color="rgb(80.267334%, 34.988403%, 77.148438%)" offset="0.984375"/><stop stop-opacity="1" stop-color="rgb(80.160522%, 34.632874%, 77.488708%)" offset="0.992188"/><stop stop-opacity="1" stop-color="rgb(80.052185%, 34.275818%, 77.828979%)" offset="1"/></linearGradient></defs><g clip-path="url(#id1)"><g clip-path="url(#id2)"><path fill="url(#id3)" d="M 313.410156 0 L 313.410156 810 L 1126.628906 810 L 1126.628906 0 Z M 313.410156 0 " fill-rule="nonzero"/></g></g><g fill="#000000" fill-opacity="1"><g transform="translate(617.001541, 160.779314)"><g><path d="M 2.449219 2.003906 C 3.636719 2.152344 3.710938 1.039062 3.824219 0.222656 C 3.972656 -1.078125 4.121094 -2.375 4.15625 -3.675781 C 4.195312 -5.714844 4.230469 -7.792969 4.15625 -9.835938 C 4.082031 -11.171875 4.453125 -11.726562 5.9375 -11.765625 C 11.246094 -11.800781 16.515625 -11.988281 21.820312 -12.097656 C 24.640625 -12.136719 24.640625 -12.0625 24.714844 -9.277344 C 24.789062 -7.644531 24.863281 -3.710938 24.902344 -3.453125 C 24.9375 -2.5625 25.085938 -1.597656 26.164062 -1.523438 C 27.238281 -1.449219 27.574219 -2.375 27.757812 -3.230469 C 27.980469 -4.195312 28.242188 -5.160156 28.167969 -6.125 C 27.796875 -11.726562 27.574219 -17.332031 27.832031 -22.972656 C 27.871094 -23.9375 27.832031 -24.9375 27.238281 -25.792969 C 26.71875 -26.570312 26.089844 -26.683594 25.496094 -25.792969 C 25.050781 -25.125 25.085938 -24.34375 25.050781 -23.601562 C 24.9375 -21.226562 24.753906 -18.851562 24.753906 -16.476562 C 24.714844 -15.140625 24.382812 -14.363281 22.898438 -14.511719 C 17.183594 -15.03125 11.46875 -15.328125 5.753906 -15.179688 C 4.34375 -15.140625 4.15625 -15.882812 4.15625 -16.996094 C 4.195312 -19.039062 4.195312 -21.117188 4.046875 -23.15625 C 3.933594 -24.234375 4.121094 -25.976562 2.5625 -25.941406 C 1.039062 -25.902344 1.113281 -24.234375 1.078125 -23.082031 C 1.003906 -19.855469 1.078125 -16.589844 1.078125 -14.917969 C 0.742188 -8.90625 1.113281 -4.492188 1.375 -0.0742188 C 1.449219 0.78125 1.300781 1.855469 2.449219 2.003906 Z M 2.449219 2.003906 "/></g></g></g><g fill="#000000" fill-opacity="1"><g transform="translate(646.08917, 160.779314)"><g><path d="M 2.746094 0 C 4.898438 -0.0742188 4.640625 -3.007812 4.640625 -4.863281 L 4.640625 -12.359375 C 5.085938 -17.109375 5.121094 -20.671875 4.972656 -24.234375 C 4.9375 -25.085938 4.972656 -25.941406 4.453125 -26.71875 C 4.007812 -27.460938 3.082031 -27.460938 2.710938 -26.644531 C 1.449219 -16.847656 1.078125 -12.285156 0.929688 -3.824219 L 0.964844 -2.226562 C 1.039062 -1.078125 1.375 0.0390625 2.746094 0 Z M 2.746094 0 "/></g></g></g><g fill="#000000" fill-opacity="1"><g transform="translate(652.062517, 160.779314)"><g/></g></g><g fill="#000000" fill-opacity="1"><g transform="translate(670.613297, 160.779314)"><g><path d="M 16.03125 1.632812 C 17.441406 1.707031 17.257812 -0.261719 17.40625 -1.597656 C 17.8125 -4.417969 16.960938 -18.667969 16.921875 -20.707031 C 16.847656 -24.492188 16.886719 -23.824219 20.039062 -23.789062 C 21.746094 -23.789062 23.492188 -23.601562 25.199219 -24.085938 C 25.867188 -24.269531 26.386719 -24.679688 26.421875 -25.421875 C 26.496094 -26.199219 25.976562 -26.609375 25.308594 -26.832031 C 22.304688 -27.796875 4.898438 -29.207031 2.117188 -28.425781 C 1.410156 -28.277344 1.003906 -27.796875 0.929688 -27.054688 C 0.855469 -26.386719 1.113281 -25.792969 1.707031 -25.421875 C 3.304688 -24.457031 8.460938 -24.234375 11.617188 -24.085938 C 12.914062 -24.046875 13.25 -23.527344 13.175781 -22.304688 C 12.730469 -14.917969 13.695312 -7.644531 14.769531 -0.335938 C 14.917969 0.371094 14.917969 1.558594 16.03125 1.632812 Z M 16.03125 1.632812 "/></g></g></g><g fill="#000000" fill-opacity="1"><g transform="translate(697.957145, 160.779314)"><g><path d="M 2.449219 2.003906 C 3.636719 2.152344 3.710938 1.039062 3.824219 0.222656 C 3.972656 -1.078125 4.121094 -2.375 4.15625 -3.675781 C 4.195312 -5.714844 4.230469 -7.792969 4.15625 -9.835938 C 4.082031 -11.171875 4.453125 -11.726562 5.9375 -11.765625 C 11.246094 -11.800781 16.515625 -11.988281 21.820312 -12.097656 C 24.640625 -12.136719 24.640625 -12.0625 24.714844 -9.277344 C 24.789062 -7.644531 24.863281 -3.710938 24.902344 -3.453125 C 24.9375 -2.5625 25.085938 -1.597656 26.164062 -1.523438 C 27.238281 -1.449219 27.574219 -2.375 27.757812 -3.230469 C 27.980469 -4.195312 28.242188 -5.160156 28.167969 -6.125 C 27.796875 -11.726562 27.574219 -17.332031 27.832031 -22.972656 C 27.871094 -23.9375 27.832031 -24.9375 27.238281 -25.792969 C 26.71875 -26.570312 26.089844 -26.683594 25.496094 -25.792969 C 25.050781 -25.125 25.085938 -24.34375 25.050781 -23.601562 C 24.9375 -21.226562 24.753906 -18.851562 24.753906 -16.476562 C 24.714844 -15.140625 24.382812 -14.363281 22.898438 -14.511719 C 17.183594 -15.03125 11.46875 -15.328125 5.753906 -15.179688 C 4.34375 -15.140625 4.15625 -15.882812 4.15625 -16.996094 C 4.195312 -19.039062 4.195312 -21.117188 4.046875 -23.15625 C 3.933594 -24.234375 4.121094 -25.976562 2.5625 -25.941406 C 1.039062 -25.902344 1.113281 -24.234375 1.078125 -23.082031 C 1.003906 -19.855469 1.078125 -16.589844 1.078125 -14.917969 C 0.742188 -8.90625 1.113281 -4.492188 1.375 -0.0742188 C 1.449219 0.78125 1.300781 1.855469 2.449219 2.003906 Z M 2.449219 2.003906 "/></g></g></g><g fill="#000000" fill-opacity="1"><g transform="translate(727.044775, 160.779314)"><g><path d="M 4.75 -0.1875 C 7.089844 0.148438 18.964844 0.0742188 21.226562 -0.445312 C 22.488281 -0.707031 24.121094 -0.816406 24.195312 -2.414062 C 24.234375 -4.082031 22.636719 -4.230469 21.339844 -4.453125 C 19.742188 -4.714844 9.835938 -4.527344 8.089844 -4.492188 C 5.605469 -4.453125 5.605469 -4.453125 5.679688 -6.792969 L 5.679688 -10.6875 C 5.714844 -13.210938 5.714844 -13.25 8.386719 -13.324219 C 12.0625 -13.472656 15.734375 -13.769531 19.335938 -14.511719 C 20.300781 -14.695312 21.894531 -14.472656 21.894531 -15.882812 C 21.859375 -17.441406 20.300781 -16.960938 19.335938 -17.035156 C 15.363281 -17.40625 11.355469 -17.628906 7.386719 -17.035156 C 5.9375 -16.8125 5.417969 -17.332031 5.382812 -18.703125 C 5.308594 -20.335938 5.234375 -21.933594 4.972656 -23.566406 C 4.789062 -24.863281 5.269531 -25.273438 6.53125 -25.273438 C 9.984375 -25.273438 13.472656 -25.234375 16.886719 -24.828125 C 19.261719 -24.53125 21.636719 -24.605469 24.011719 -24.640625 C 24.976562 -24.679688 25.753906 -25.125 25.792969 -26.164062 C 25.792969 -27.015625 25.125 -27.5 24.34375 -27.683594 C 23.527344 -27.90625 13.398438 -28.425781 7.867188 -28.648438 C 6.160156 -28.722656 4.378906 -28.6875 2.746094 -28.09375 C 1.894531 -27.796875 1.113281 -27.460938 1.375 -26.273438 C 2.152344 -22.636719 1.300781 -18.964844 1.261719 -15.328125 C 1.1875 -11.652344 0.890625 -7.980469 0.929688 -4.34375 C 0.964844 -1.300781 1.671875 -0.667969 4.75 -0.1875 Z M 4.75 -0.1875 "/></g></g></g><g fill="#000000" fill-opacity="1"><g transform="translate(753.757904, 160.779314)"><g><path d="M 2.042969 -0.0390625 C 3.453125 0.1875 3.710938 -1.078125 4.007812 -2.117188 C 4.15625 -2.636719 4.121094 -3.191406 4.15625 -3.75 C 4.34375 -5.789062 4.566406 -7.832031 4.675781 -9.871094 C 4.714844 -11.171875 5.121094 -11.839844 6.53125 -11.765625 C 14.660156 -10.984375 15.996094 -12.730469 19.261719 -8.238281 C 20.671875 -6.234375 22.675781 -4.640625 24.417969 -2.894531 C 25.125 -2.226562 25.941406 -1.375 26.941406 -2.191406 C 27.945312 -3.042969 27.128906 -4.007812 26.757812 -4.863281 C 26.273438 -6.011719 21.671875 -10.652344 19.335938 -13.175781 C 21.300781 -13.84375 22.785156 -14.4375 24.011719 -15.511719 C 26.496094 -17.664062 26.496094 -20.300781 24.011719 -22.378906 C 20.96875 -24.902344 14.472656 -27.277344 7.867188 -27.5 C 6.605469 -27.535156 5.269531 -27.386719 4.046875 -27.089844 C 1.523438 -26.460938 1.1875 -25.679688 1.78125 -23.046875 C 1.894531 -22.453125 1.820312 -21.785156 1.78125 -21.152344 C 1.375 -14.882812 1.597656 -8.648438 1.003906 -2.375 C 0.890625 -1.484375 0.707031 -0.222656 2.042969 -0.0390625 Z M 10.464844 -14.546875 C 8.535156 -14.511719 6.308594 -13.65625 5.269531 -14.695312 C 4.046875 -15.882812 4.863281 -18.148438 4.898438 -19.964844 C 4.9375 -24.046875 4.34375 -23.75 8.722656 -23.824219 C 14.101562 -23.9375 23.640625 -22.082031 23.492188 -18.816406 C 23.378906 -17.035156 21.710938 -16.179688 20.152344 -15.660156 C 16.921875 -14.546875 13.582031 -14.472656 10.464844 -14.546875 Z M 10.464844 -14.546875 "/></g></g></g><g fill="#000000" fill-opacity="1"><g transform="translate(782.103499, 160.779314)"><g><path d="M 4.75 -0.1875 C 7.089844 0.148438 18.964844 0.0742188 21.226562 -0.445312 C 22.488281 -0.707031 24.121094 -0.816406 24.195312 -2.414062 C 24.234375 -4.082031 22.636719 -4.230469 21.339844 -4.453125 C 19.742188 -4.714844 9.835938 -4.527344 8.089844 -4.492188 C 5.605469 -4.453125 5.605469 -4.453125 5.679688 -6.792969 L 5.679688 -10.6875 C 5.714844 -13.210938 5.714844 -13.25 8.386719 -13.324219 C 12.0625 -13.472656 15.734375 -13.769531 19.335938 -14.511719 C 20.300781 -14.695312 21.894531 -14.472656 21.894531 -15.882812 C 21.859375 -17.441406 20.300781 -16.960938 19.335938 -17.035156 C 15.363281 -17.40625 11.355469 -17.628906 7.386719 -17.035156 C 5.9375 -16.8125 5.417969 -17.332031 5.382812 -18.703125 C 5.308594 -20.335938 5.234375 -21.933594 4.972656 -23.566406 C 4.789062 -24.863281 5.269531 -25.273438 6.53125 -25.273438 C 9.984375 -25.273438 13.472656 -25.234375 16.886719 -24.828125 C 19.261719 -24.53125 21.636719 -24.605469 24.011719 -24.640625 C 24.976562 -24.679688 25.753906 -25.125 25.792969 -26.164062 C 25.792969 -27.015625 25.125 -27.5 24.34375 -27.683594 C 23.527344 -27.90625 13.398438 -28.425781 7.867188 -28.648438 C 6.160156 -28.722656 4.378906 -28.6875 2.746094 -28.09375 C 1.894531 -27.796875 1.113281 -27.460938 1.375 -26.273438 C 2.152344 -22.636719 1.300781 -18.964844 1.261719 -15.328125 C 1.1875 -11.652344 0.890625 -7.980469 0.929688 -4.34375 C 0.964844 -1.300781 1.671875 -0.667969 4.75 -0.1875 Z M 4.75 -0.1875 "/></g></g></g><g fill="#000000" fill-opacity="1"><g transform="translate(808.816629, 160.779314)"><g><path d="M 3.15625 -7.609375 C 4.15625 -7.570312 4.675781 -8.277344 4.824219 -9.242188 C 4.898438 -9.761719 4.863281 -10.316406 4.898438 -10.835938 C 5.160156 -14.289062 5.011719 -17.738281 4.714844 -21.152344 C 4.714844 -24.714844 4.714844 -28.277344 4.675781 -31.839844 C 4.675781 -32.472656 4.675781 -33.101562 4.566406 -33.769531 C 4.492188 -34.402344 4.195312 -34.996094 3.414062 -35.070312 C 2.671875 -35.179688 2.226562 -34.734375 1.929688 -34.066406 C 0.707031 -31.433594 1.152344 -15.066406 1.558594 -9.316406 C 1.597656 -8.351562 2.152344 -7.644531 3.15625 -7.609375 Z M 3.488281 0 C 4.640625 -0.0742188 5.753906 -1.1875 5.789062 -2.339844 C 5.863281 -3.601562 4.714844 -4.863281 3.414062 -4.863281 C 2.117188 -4.898438 0.890625 -3.675781 0.929688 -2.414062 C 0.964844 -1.113281 2.226562 0.0742188 3.488281 0 Z M 3.488281 0 "/></g></g></g><g fill="#000000" fill-opacity="1"><g transform="translate(815.53201, 160.779314)"><g><path d="M 3.15625 -7.609375 C 4.15625 -7.570312 4.675781 -8.277344 4.824219 -9.242188 C 4.898438 -9.761719 4.863281 -10.316406 4.898438 -10.835938 C 5.160156 -14.289062 5.011719 -17.738281 4.714844 -21.152344 C 4.714844 -24.714844 4.714844 -28.277344 4.675781 -31.839844 C 4.675781 -32.472656 4.675781 -33.101562 4.566406 -33.769531 C 4.492188 -34.402344 4.195312 -34.996094 3.414062 -35.070312 C 2.671875 -35.179688 2.226562 -34.734375 1.929688 -34.066406 C 0.707031 -31.433594 1.152344 -15.066406 1.558594 -9.316406 C 1.597656 -8.351562 2.152344 -7.644531 3.15625 -7.609375 Z M 3.488281 0 C 4.640625 -0.0742188 5.753906 -1.1875 5.789062 -2.339844 C 5.863281 -3.601562 4.714844 -4.863281 3.414062 -4.863281 C 2.117188 -4.898438 0.890625 -3.675781 0.929688 -2.414062 C 0.964844 -1.113281 2.226562 0.0742188 3.488281 0 Z M 3.488281 0 "/></g></g></g></svg>